# xmcd CD database file
# Copyright (C) 1996 Ti Kan
#
# Track frame offsets:
#	187
#	13855
#	25802
#	36500
#	48962
#	60765
#	73722
#	84242
#	96987
#	109835
#
# Disc length: 1645 seconds
#
# Revision: 1
# Processed by: cddbd v1.4b41PL1 Copyright (c) Steve Scherf et al.
# Submitted via: EasyCD 2.21 - (C) 1996 Greg Leichner
#
DISCID=7a066b0a
DTITLE=Jim Reeves and Patsy Cline - Greatest Hits
DYEAR=1900
DGENRE=
TTITLE0=Have You Ever Been Lonely (Jim&Patsy)
TTITLE1=Welcome To My World (jim)
TTITLE2=He'll Have To Go (Jim)
TTITLE3=Crazy (Patsy)
TTITLE4=Sweet Dreams (Of You) (Patsy)
TTITLE5=Four Walls (Jim)
TTITLE6=Am I Losing You (Jim)
TTITLE7=Golden Memories And Silver Tears (Jim)
TTITLE8=I Fall To Pieces (Patsy)
TTITLE9=She's Got You (Patsy)
EXTD=
EXTT0=
EXTT1=
EXTT2=
EXTT3=
EXTT4=
EXTT5=
EXTT6=
EXTT7=
EXTT8=
EXTT9=
PLAYORDER=
